<svg width="335" height="483" viewBox="0 0 335 483" fill="none" xmlns="http://www.w3.org/2000/svg">
<circle r="81" transform="matrix(-1 0 0 1 201 402)" fill="#9DDEF4"/>
<rect width="30.5071" height="48" rx="2" transform="matrix(-0.965926 -0.258819 -0.258819 0.965926 119 386.865)" fill="#B6704F"/>
<rect width="30.5071" height="48" rx="2" transform="matrix(-0.965926 -0.258819 -0.258819 0.965926 82.5571 386.865)" fill="#B6704F"/>
<path d="M118.999 284.76L124.737 285L179 289.5L191 368.409L135.615 330.659L92.8716 374.043C91.7908 375.14 91.0496 376.526 90.737 378.034L89.7824 382.639C89.5956 383.539 89.2549 384.401 88.7752 385.186L84.306 392.499C84.1032 392.831 83.9498 393.191 83.8508 393.567L82.3419 399.301C81.8534 401.157 80.1152 402.405 78.2003 402.274L49.1024 400.281C46.8553 400.127 45.1783 398.149 45.3941 395.907L45.8468 391.204C45.8916 390.738 45.8544 390.268 45.7368 389.815L42.9253 378.988C42.023 375.514 42.7238 371.817 44.8353 368.914L48.1627 364.339C51.6979 359.478 54.4275 354.08 56.2468 348.351L64.277 323.064C71.7878 299.413 94.206 283.721 118.999 284.76Z" fill="#B48CFF"/>
<path d="M78 438L75.849 417.748C75.5164 414.617 71.6071 413.392 69.5472 415.774V415.774C69.2331 416.137 68.6584 416.097 68.3979 415.693L63.2104 407.66C61.7369 405.378 59.2062 404 56.4899 404H50.1992C46.6432 404 43.514 406.347 42.5188 409.761L38.777 422.598C38.0393 425.129 36.4889 427.346 34.3653 428.908L25.2608 435.602C23.2107 437.11 22 439.503 22 442.047V455C22 457.209 23.7909 459 26 459H74C76.2091 459 78 457.209 78 455V438Z" fill="#F23116"/>
<path d="M78 449H61C59.8954 449 59 449.895 59 451V453C59 454.105 59.8954 455 61 455H78V449Z" fill="white"/>
<path d="M39 425L56.5 429H36.5L50 433" stroke="#FECE00" stroke-width="2" stroke-linejoin="bevel"/>
<path fill-rule="evenodd" clip-rule="evenodd" d="M75.0625 415.841L70.0596 424.144C69.1251 425.694 67.8518 427.014 66.335 428.002L54.631 435.633C52.3659 437.109 51 439.63 51 442.334V455C51 457.209 52.7909 459 55 459H74.0097C76.2144 458.995 78 457.206 78 455V438L75.849 417.748C75.7689 416.994 75.4815 416.351 75.0625 415.841Z" fill="#C61800"/>
<path d="M115 438L112.849 417.748C112.516 414.617 108.607 413.392 106.547 415.774V415.774C106.233 416.137 105.658 416.097 105.398 415.693L100.21 407.66C98.7369 405.378 96.2062 404 93.4899 404H87.1992C83.6432 404 80.514 406.347 79.5188 409.761L75.777 422.598C75.0393 425.129 73.4889 427.346 71.3653 428.908L62.2608 435.602C60.2107 437.11 59 439.503 59 442.047V455C59 457.209 60.7909 459 63 459H111C113.209 459 115 457.209 115 455V438Z" fill="#F23116"/>
<path d="M115 449H98C96.8954 449 96 449.895 96 451V453C96 454.105 96.8954 455 98 455H115V449Z" fill="white"/>
<path d="M76 425L93.5 429H73.5L87 433" stroke="#FECE00" stroke-width="2" stroke-linejoin="bevel"/>
<path d="M143.288 346.898L146.399 381.35C146.747 385.201 144.291 388.749 140.564 389.78L125.016 394.081C124.042 394.35 123.205 394.979 122.676 395.84L116.931 405.174C116.068 406.577 114.433 407.307 112.813 407.014L85.788 402.126C83.8844 401.781 82.5 400.124 82.5 398.19V390.246C82.5 389.773 82.416 389.304 82.252 388.86L74.8258 368.765C74.2954 367.33 74.3333 365.747 74.9317 364.339L91 326.531L106.938 306.292C109.96 302.456 113.581 299.133 117.662 296.451C125.059 291.59 133.716 289 142.567 289H235C237.209 289 239 290.791 239 293V312.178C239 326.538 227.359 338.178 213 338.178H151.255C146.553 338.178 142.865 342.214 143.288 346.898Z" fill="#9F6DFE"/>
<path d="M249.328 324.5V246C249.328 241.582 252.91 238 257.328 238H280M159.805 351.213L149.85 356.62C143.343 360.153 138.434 366.042 136.129 373.079L107.5 460.5M164.827 364.639V364.639C156.448 366.93 150.24 373.992 149.04 382.595L141.484 436.804M163.572 428.413L157.135 431.256C152.7 433.215 149.088 436.661 146.925 441V441" stroke="white" stroke-width="8"/>
<path d="M303.2 245.074C304.894 246.747 306.588 247.33 308.282 246.823C310.283 246.224 311 243.899 311 241.81C311 237.497 307.503 234 303.19 234H272V242.149C272 244.021 272.648 246.049 274.397 246.714C276.198 247.399 277.999 246.853 279.8 245.074C282.4 242.506 285 242.506 287.6 245.074C290.2 247.642 292.8 247.642 295.4 245.074C298 242.506 300.6 242.506 303.2 245.074Z" fill="#9DDEF4"/>
<path d="M115 467C115 468.105 114.105 469 113 469H17C15.8954 469 15 468.105 15 467V461C15 459.895 15.8954 459 17 459H113C114.105 459 115 459.895 115 461V467Z" fill="#9DDEF4"/>
<ellipse rx="18" ry="22" transform="matrix(-1 0 0 1 139 458)" fill="white" stroke="#6CBBD7" stroke-width="6"/>
<ellipse rx="4.90909" ry="6" transform="matrix(-1 0 0 1 139 458)" stroke="#6CBBD7" stroke-width="4"/>
<path d="M164 338H142C135.373 338 130 343.373 130 350V356C130 364.837 137.163 372 146 372H164V338Z" fill="#9DDEF4"/>
<ellipse rx="79" ry="92" transform="matrix(-1 0 0 1 234 386)" fill="white" stroke="#6CBBD7" stroke-width="10"/>
<path d="M234 293.217V384.946M234 384.946V476.674M234 384.946H155M234 384.946L313 384.946M234 384.946L178.139 320.084M234 384.946L289.861 449.807M234 384.946L178.139 449.807M234 384.946L289.861 320.084" stroke="#6CBBD7" stroke-width="6"/>
<ellipse rx="9" ry="10.5435" transform="matrix(-1 0 0 1 234 384.946)" fill="white" stroke="#6CBBD7" stroke-width="6"/>
<path d="M53.5949 215.742L49.5 217.651L40.5593 231.012C37.9083 234.974 38.4221 240.256 41.7871 243.632L62.6728 264.589C78.2464 280.216 99.4007 289 121.463 289H162V196L115.534 212.057C103.026 216.38 89.6659 217.648 76.5677 215.758L64.9023 214.074C61.0512 213.518 57.1216 214.098 53.5949 215.742Z" fill="#ECA8FF"/>
<path fill-rule="evenodd" clip-rule="evenodd" d="M162 199.661C148.639 206.416 137.861 217.935 132.189 232.494L128.039 243.147C123.135 255.735 114.431 266.483 103.136 273.895L93.5656 280.176C92.3264 280.989 91.4251 282.013 90.8313 283.141C100.488 286.975 110.871 289 121.463 289H162V199.661Z" fill="#E379F8"/>
<path d="M232.028 258H151.308C151.308 275 148 289 148 289H234L233.884 288.592C231.058 278.649 230.425 268.211 232.028 258Z" fill="#B6704F"/>
<path d="M211.898 186H182.936C163.581 186 147.771 200.094 141.981 218.563C136.565 235.837 131.991 239.2 125.734 270.371C124.772 275.161 128.388 279.635 133.272 279.786L265.244 283.853C267.727 283.93 269.674 281.767 269.289 279.313C267.384 267.158 261.84 234.398 255 217.5C247.874 199.894 230.892 186 211.898 186Z" fill="#ECA8FF"/>
<path d="M230 207L267 235.16L235.5 283.5L219.25 282.75C219.25 282.75 223.5 267 224 254C224.5 241 230 207 230 207Z" fill="#E379F8"/>
<path d="M18.187 194.249L29.7702 197.817C29.9867 197.884 30.1851 197.983 30.3673 198.118C31.8478 199.211 39.1473 204.582 45.5892 209C44.7261 206 43.7 199.2 46.5 196C49.125 193 51.471 193 53.2355 193C55 193 53.5 197.5 52.5 199C51.7303 200.155 54.0626 204.673 54.614 209.576C54.9351 212.432 55.2352 215.385 56.5826 217.923C58.6953 221.903 58.5097 226.711 56.0963 230.516L55.7169 231.114C52.6895 235.887 46.9123 238.141 41.4525 236.678L41.3088 236.726C36.3092 238.418 30.7899 236.679 27.6623 232.428C27.3798 232.044 26.9609 231.782 26.4917 231.698L21.8651 230.862C21.4942 230.795 21.1119 230.834 20.7624 230.975L14.3848 233.544C13.6901 233.824 12.8974 233.692 12.3305 233.203L11.4297 232.425C10.4477 231.578 10.5202 230.034 11.5773 229.282L19.0116 223.993C19.3912 223.723 19.8533 223.594 20.318 223.628L23.4672 223.86C24.0851 223.906 24.2178 223.009 23.6132 222.874L18.9219 221.824C18.6686 221.767 18.4067 221.76 18.1508 221.804L7.9629 223.531C6.70752 223.744 5.57551 222.745 5.6304 221.473L5.66034 220.78C5.69746 219.919 6.28076 219.18 7.10842 218.943L19.2792 215.461C19.5806 215.375 19.8982 215.361 20.2061 215.42L26.4293 216.614C26.9743 216.719 27.2586 215.99 26.7867 215.698L19.6369 211.272C19.4301 211.144 19.2017 211.055 18.9629 211.009L8.48253 208.988C7.08265 208.718 6.40666 207.112 7.19219 205.922L7.51092 205.439C7.90929 204.836 8.6023 204.494 9.32344 204.546L20.9835 205.385C21.2323 205.403 21.4755 205.467 21.7007 205.575L31.2536 210.129C31.7564 210.369 32.2155 209.731 31.8282 209.33L25.8976 203.197C25.7316 203.025 25.5362 202.885 25.3206 202.782L16.1641 198.416C14.8246 197.777 14.6226 195.954 15.7899 195.037L16.3633 194.587C16.8791 194.183 17.5604 194.056 18.187 194.249Z" fill="#DD9E86"/>
<path d="M230.629 369.767L234.1 366.606C237.718 363.31 239.473 358.462 239.225 353.566L259.451 362.596C258.676 370.776 257.047 378.896 254.613 386.745C254.378 387.502 254.35 388.312 254.534 389.082C254.692 389.746 254.694 390.437 254.54 391.102L253.698 394.746C253.52 395.518 252.991 396.16 252.271 396.481C251.551 396.802 251.022 397.445 250.844 398.216L250.798 398.412C250.579 399.361 249.902 400.139 248.995 400.484L248.341 400.733C247.516 401.047 246.809 401.614 246.321 402.354L245.969 402.886C245.156 404.116 243.912 404.992 242.486 405.34C241.796 405.508 241.143 405.801 240.557 406.206L235.806 409.49C235.149 409.944 234.289 409.968 233.611 409.551C232.717 409.002 232.392 407.856 232.863 406.912L238.049 396.513C238.493 395.623 238.711 394.637 238.685 393.643L238.466 385.401C238.432 384.111 237.536 383.009 236.286 382.72C234.768 382.369 233.252 383.322 232.899 384.849L232.748 385.503C232.671 385.836 232.643 386.178 232.664 386.519L232.804 388.749C232.904 390.346 232.369 391.919 231.317 393.123L230.462 394.1C229.424 395.287 227.495 394.867 227.046 393.356L225.163 387.03C224.805 385.829 224.829 384.545 225.232 383.356L228.97 372.305C229.3 371.331 229.871 370.458 230.629 369.767Z" fill="#DD9E86"/>
<path d="M230.054 389.62C229.922 388.298 229.101 387.298 228.22 387.386C227.338 387.474 226.731 388.617 226.863 389.939C226.995 391.26 227.816 392.261 228.697 392.173C229.579 392.085 230.186 390.942 230.054 389.62Z" fill="#1570FF"/>
<path d="M236.752 407.666C237.659 406.694 237.978 405.519 237.466 405.042C236.954 404.564 235.804 404.964 234.898 405.935C233.991 406.906 233.672 408.081 234.184 408.559C234.696 409.037 235.846 408.637 236.752 407.666Z" fill="#1570FF"/>
<path d="M237.554 361.721L252.946 370.397C257.889 373.183 264.157 371.303 266.75 366.256L291.359 318.369C296.217 308.916 296.775 297.831 292.892 287.938L267.548 223.372C260.93 206.512 246.565 193.893 228.992 189.504L214.967 186L233.163 286.141C234.052 291.037 234.5 296.003 234.5 300.979L234.5 356.494C234.5 358.66 235.667 360.658 237.554 361.721Z" fill="#ECA8FF"/>
<path fill-rule="evenodd" clip-rule="evenodd" d="M163.934 105.797C160.709 110.629 158.011 116.157 154.229 120.567C147.748 128.124 144.372 138.349 145.926 149.133L146.956 156.284C147.963 163.273 146.892 170.405 143.877 176.79L141.348 182.146C140.721 183.473 141.689 185 143.156 185H204C223.882 185 240 168.882 240 149V144C240 133.848 235.798 124.677 229.037 118.132C224.903 114.13 221.72 108.944 218.093 104.477C214.884 100.525 209.987 98 204.5 98H178.5C172.424 98 167.071 101.096 163.934 105.797Z" fill="#9B4B35"/>
<path fill-rule="evenodd" clip-rule="evenodd" d="M203.757 140H184.756C180.7 140 177.007 137.664 175.269 134L175 133.432V140H173.224C170.902 140 168.737 139.241 166.983 137.944C166.575 139.111 166.285 140.364 166.13 141.703C165.955 143.217 165.768 144.741 165.191 146.153C164.574 147.664 164 149.068 164 151C164 156.007 165.252 160.671 167.468 164.582C168.155 165.794 168.794 167.058 169.435 168.326C170.604 170.64 171.781 172.968 173.273 175.029C175.453 178.041 178.998 180 183 180C183.471 180 183.936 179.973 184.394 179.92L181.706 189.925C180.341 195.007 184.17 200 189.432 200H192C200.837 200 208 192.837 208 184V161.108C208.082 160.912 208.161 160.715 208.238 160.516C209.016 158.506 210.845 157 213 157C215.209 157 217 155.209 217 153V150.062C217 145.96 211.562 144.516 209.527 148.078C208.913 149.151 207.507 149.277 206.959 148.168C206.345 146.924 205.768 145.351 205.132 143.621C204.709 142.467 204.26 141.244 203.757 140Z" fill="#DD9E86"/>
</svg>
