<svg width="333" height="490" viewBox="0 0 333 490" fill="none" xmlns="http://www.w3.org/2000/svg">
<path fill-rule="evenodd" clip-rule="evenodd" d="M108.901 43.8448C108.341 43.2242 108 42.4019 108 41.5C108 39.567 109.567 38 111.5 38C111.684 38 111.865 38.0142 112.042 38.0417C112.014 37.8651 112 37.6842 112 37.5C112 35.567 113.567 34 115.5 34C116.038 34 116.548 34.1215 117.004 34.3386C117.088 32.4805 118.621 31 120.5 31C121.926 31 123.153 31.8527 123.698 33.076C124.248 32.4183 125.075 32 126 32C126.437 32 126.851 32.0933 127.226 32.261C127.726 30.9395 129.003 30 130.5 30C131.825 30 132.977 30.7359 133.572 31.8211C134.245 31.306 135.087 31 136 31C137.432 31 138.688 31.7525 139.395 32.8835C139.979 31.7642 141.15 31 142.5 31C144.379 31 145.912 32.4805 145.996 34.3386C146.452 34.1215 146.962 34 147.5 34C148.699 34 149.758 34.6032 150.388 35.5227C150.904 34.6135 151.88 34 153 34C154.657 34 156 35.3431 156 37C156 37.6162 155.814 38.189 155.496 38.6654C155.642 38.7273 155.781 38.788 155.915 38.8473C157.361 39.4871 158.169 40.9535 158.169 42.5341L158.169 75H110.045V54.0605C108.762 52.3789 108 50.2785 108 48C108 46.5174 108.323 45.1102 108.901 43.8448Z" fill="#1A2027"/>
<path fill-rule="evenodd" clip-rule="evenodd" d="M155.532 90.5818C157.748 86.6712 159 82.0075 159 77C159 75.0679 158.426 73.6638 157.809 72.1527C157.232 70.7415 157.045 69.2173 156.87 67.703C155.66 57.2343 146.166 52 136.5 52C124.336 52 120.574 62.2472 117.868 69.6206C117.232 71.3514 116.655 72.924 116.041 74.1684C115.493 75.2774 114.087 75.1515 113.473 74.0777C111.438 70.5163 106 71.9604 106 76.0623V79C106 81.2091 107.791 83 110 83C112.155 83 113.984 84.5065 114.762 86.5162C114.839 86.7147 114.918 86.912 115 87.1079V110C115 118.837 122.163 126 131 126H133.568C138.83 126 142.659 121.007 141.294 115.925L138.606 105.92C139.064 105.973 139.529 106 140 106C144.002 106 147.547 104.041 149.727 101.029C151.219 98.9683 152.396 96.6399 153.565 94.3259C154.206 93.0581 154.845 91.7945 155.532 90.5818Z" fill="#7B371F"/>
<g clip-path="url(#clip0)">
<path d="M126.185 366.571L171 218H98.5C98.5 218 80.5 244.5 82.5 273.5C84.3173 299.851 90.6756 338.338 91.8221 351.752C91.9492 353.239 90.412 354.205 89.0144 353.682C59.9981 342.807 38.0888 391.201 26 426.5L38.5 438.5L121.773 373.036C123.873 371.386 125.414 369.128 126.185 366.571Z" fill="#7B371F"/>
<path d="M208.991 345.432C208.932 338.711 208.477 311.884 205 294.5C201 274.5 185 218 185 218H140.5C140.5 235.731 142.4 276.955 150 300L164.634 344.374C165.061 345.667 164.073 346.994 162.74 347.274C139.751 352.101 156.181 419.466 161 458.5H181.5L208.622 348.534C208.873 347.515 209 346.481 208.991 345.432Z" fill="#7B371F"/>
<rect x="44.4175" y="384" width="39" height="19" rx="4" transform="rotate(36.936 44.4175 384)" fill="#1A2027"/>
<path d="M205.78 259.708L187.573 220.322C186.919 218.906 185.502 218 183.942 218H166.5L145 304.5L150.517 332.084C151.475 336.877 150.732 341.855 148.415 346.159L147.242 348.336C145.766 351.078 144.918 354.113 144.759 357.223L142.125 408.931C141.513 420.933 151.08 431 163.097 431H184.192C194.466 431 203.231 423.567 204.91 413.431L214.441 355.877C214.812 353.632 214.944 351.354 214.832 349.081L211.61 283.425C211.207 275.219 209.228 267.166 205.78 259.708Z" fill="#1A2027"/>
<path d="M8.32734 422.564C11.9987 418.892 16.0413 415.612 20.3903 412.776L28.4655 407.509C33.6044 404.158 40.5218 406.182 43.044 411.774L45.326 416.834C45.86 418.018 47.3634 418.387 48.3848 417.585L50.6948 415.77C53.8791 413.268 58.4308 413.54 61.2943 416.403L63.6889 418.798C66.2085 421.318 66.758 425.2 65.0367 428.32L59.6919 438.007C57.7756 441.48 57.6996 445.676 59.4888 449.217L70.6336 471.269C72.1925 474.354 71.5943 478.09 69.1505 480.534L61.2254 488.459C59.6633 490.022 57.1306 490.022 55.5685 488.459L1.82842 434.719C0.266327 433.157 0.266327 430.625 1.82842 429.062L8.32734 422.564Z" fill="#E0E0E0"/>
<path d="M6.07104 424.82L61.2254 479.974C62.0064 480.755 62.0064 482.022 61.2254 482.803L59.8112 484.217C59.0301 484.998 57.7638 484.998 56.9827 484.217L1.8284 429.062L6.07104 424.82Z" fill="white"/>
<path d="M60.6193 445.427L49.9117 443.205L61.2254 448.861L51.8309 449.366" stroke="#1A2027" stroke-width="2" stroke-linejoin="bevel"/>
<path fill-rule="evenodd" clip-rule="evenodd" d="M145.035 354.762C152.925 349.643 168 338.264 168 317V223L159.284 247.03L145 304.5L150.517 332.084C151.475 336.877 150.732 341.855 148.415 346.159L147.249 348.324C146.163 350.34 145.417 352.515 145.035 354.762Z" fill="#1A2027"/>
<path d="M76.4195 248.168L89.7293 220.277C90.3933 218.886 91.7977 218 93.3393 218H180L134.89 368.909C133.428 373.797 130.703 378.214 126.989 381.713L99.0393 408.039C97.0465 409.917 94.6053 411.251 91.9493 411.915L83.062 414.137C78.5752 415.259 73.8227 414.384 70.0292 411.739L44.5356 393.96C40.4405 391.104 38 386.427 38 381.435C38 378.147 39.0607 374.948 41.0245 372.312L54.6872 353.972C58.3526 349.051 63.7857 345.747 69.8406 344.756C76.41 343.68 80.7994 337.399 79.5507 330.86L71.3158 287.736C68.7576 274.34 70.5458 260.477 76.4195 248.168Z" fill="#1A2027"/>
<rect x="155" y="423" width="39" height="19" rx="4" fill="#1A2027"/>
<path d="M153 476.809C153 471.617 153.539 466.439 154.609 461.358L156.595 451.924C157.859 445.921 164.181 442.46 169.919 444.632L175.111 446.596C176.326 447.056 177.65 446.253 177.804 444.964L178.154 442.047C178.637 438.026 182.048 435 186.097 435H189.484C193.047 435 196.181 437.357 197.17 440.78L200.24 451.409C201.341 455.22 204.255 458.241 208.023 459.479L231.497 467.192C234.781 468.271 237 471.336 237 474.792V486C237 488.209 235.209 490 233 490H157C154.791 490 153 488.209 153 486V476.809Z" fill="#E0E0E0"/>
<path d="M153 480H231C232.105 480 233 480.895 233 482V484C233 485.105 232.105 486 231 486H153V480Z" fill="white"/>
<path d="M206.143 456L197 462L209 458L202.714 465" stroke="#1A2027" stroke-width="2" stroke-linejoin="bevel"/>
<path d="M101.5 225L89.8034 257.751C87.6257 263.848 86.7597 270.337 87.2623 276.792L91.4584 330.697C92.3466 342.106 84.8146 352.471 73.6886 355.149V355.149C68.7027 356.349 64.2522 359.162 61.0279 363.15L51.4848 374.953C48.6639 378.442 47.6642 383.062 48.7902 387.405V387.405C49.8707 391.573 48.9956 396.006 46.4122 399.45L44.5 402" stroke="white" stroke-width="4"/>
</g>
<path d="M98 115H140.362C159.547 115 176.031 128.621 179.646 147.462L186.176 181.492C187.122 186.425 183.342 191 178.319 191H102C99.7909 191 98 189.209 98 187V115Z" fill="#389810"/>
<path d="M98 178C101.978 178 105.794 174.787 108.607 169.067C111.42 163.347 113 155.589 113 147.5C113 139.411 111.42 131.653 108.607 125.933C105.794 120.213 101.978 117 98 117L98 147.5L98 178Z" fill="#288202"/>
<path d="M59.2191 193.668L84.5594 124.404C86.6258 118.756 91.9997 115 98.014 115C108.617 115 115.575 126.122 110.997 135.686C102.893 152.616 91.6635 176.494 84.3802 193.703C83.5852 195.582 84.3616 197.723 86.0292 198.898C107.947 214.338 121.587 261.325 123.5 268.5C125.35 275.438 131.908 292.219 132.879 294.693C132.962 294.904 133.004 295.116 133.013 295.342L133.461 307.454C133.486 308.109 133.187 308.735 132.663 309.128L132.079 309.565C130.892 310.456 129.183 309.789 128.913 308.33L127.066 298.355C127.022 298.12 126.937 297.895 126.814 297.69L122.425 290.374C122.138 289.897 121.403 290.175 121.504 290.723L123.431 301.129C123.477 301.374 123.476 301.626 123.429 301.871L121.221 313.35C121.085 314.061 120.575 314.642 119.889 314.87L119.341 315.053C117.988 315.504 116.612 314.435 116.713 313.013L117.474 302.367C117.491 302.124 117.464 301.881 117.394 301.648L114.969 293.596C114.809 293.065 114.032 293.151 113.992 293.704L113.534 300.024C113.512 300.337 113.416 300.64 113.255 300.909L106.742 311.764C106.299 312.502 105.433 312.874 104.593 312.687L103.915 312.537C102.672 312.26 102 310.908 102.531 309.751L106.836 300.357C106.944 300.121 107.006 299.867 107.016 299.607L107.216 294.804C107.242 294.185 106.342 294.081 106.226 294.69L105.693 297.486C105.572 298.122 105.15 298.66 104.562 298.93L95.6895 302.997C94.5515 303.518 93.2195 302.878 92.9159 301.663L92.8178 301.271C92.6248 300.499 92.9079 299.686 93.5387 299.201L98.2997 295.539C98.7458 295.196 99.0266 294.68 99.0734 294.12L99.4383 289.74C99.4779 289.265 99.334 288.793 99.0362 288.42C95.7391 284.299 95.4882 278.518 98.4159 274.126L98.5 274L59.6518 200.14C58.6 198.141 58.4428 195.79 59.2191 193.668Z" fill="#7B371F"/>
<path d="M133 307C133 308.105 132.328 309 131.5 309C130.672 309 130 308.105 130 307C130 305.895 130.672 305 131.5 305C132.328 305 133 305.895 133 307Z" fill="#FAC798"/>
<path d="M121 312C121 313.105 120.328 314 119.5 314C118.672 314 118 313.105 118 312C118 310.895 118.672 310 119.5 310C120.328 310 121 310.895 121 312Z" fill="#FAC798"/>
<path d="M106.689 310.795C106.183 311.808 105.241 312.274 104.585 311.835C103.929 311.396 103.806 310.219 104.311 309.205C104.817 308.192 105.759 307.726 106.415 308.165C107.071 308.604 107.194 309.781 106.689 310.795Z" fill="#FAC798"/>
<path d="M96.2837 301.86C95.1904 302.209 94.1771 301.882 94.0205 301.131C93.8638 300.38 94.6231 299.488 95.7163 299.14C96.8096 298.791 97.8229 299.118 97.9795 299.869C98.1362 300.62 97.3769 301.512 96.2837 301.86Z" fill="#FAC798"/>
<path fill-rule="evenodd" clip-rule="evenodd" d="M130.105 127.073C120.319 140.285 123.097 158.928 136.309 168.713L166.412 191.01C174.997 197.369 185.876 198.423 195.127 194.756C196.913 194.049 198.91 194.037 200.718 194.686C204.241 195.951 208.094 196.473 212.068 196.08C213.427 195.946 214.752 195.709 216.035 195.379C218.072 194.854 220.255 195.142 222.085 196.18C226.599 198.74 231.921 199.98 237.478 199.43C243.405 198.845 248.67 196.316 252.705 192.537C255.096 190.298 258.718 189.563 261.796 190.687C265.355 191.987 269.255 192.527 273.279 192.13C287.593 190.714 298.05 177.963 296.635 163.648L295.902 156.236C294.487 141.922 281.736 131.465 267.421 132.88C261.495 133.466 256.23 135.995 252.195 139.773C249.803 142.012 246.181 142.748 243.104 141.623C239.544 140.323 235.644 139.783 231.621 140.181C230.261 140.315 228.936 140.552 227.653 140.882C225.616 141.407 223.433 141.119 221.603 140.082C217.089 137.521 211.767 136.281 206.21 136.831C204.177 137.032 202.222 137.461 200.367 138.092C198.212 138.824 195.791 138.679 193.962 137.324L171.746 120.869C158.534 111.084 139.891 113.861 130.105 127.073Z" fill="#389810"/>
<path fill-rule="evenodd" clip-rule="evenodd" d="M148.266 115.585C172.305 118.908 192.539 136.111 199.357 159.949L208.182 190.8C208.717 192.672 208.542 194.541 207.843 196.158C205.545 196.013 203.315 195.567 201.199 194.853C199.075 194.138 196.749 194.15 194.652 194.94C185.505 198.386 174.851 197.261 166.412 191.01L136.309 168.714C123.097 158.928 120.32 140.285 130.105 127.073C134.699 120.87 141.246 116.968 148.266 115.585Z" fill="#288202"/>
<path d="M101 115H149.653C169.19 115 185.868 129.113 189.101 148.38L196.535 192.676C197.353 197.555 193.592 202 188.645 202H102.14C99.8771 202 98.0647 200.124 98.1427 197.862L101 115Z" fill="#389810"/>
<path d="M112 202H189V214C189 216.209 187.209 218 185 218H112V202Z" fill="#389810"/>
<path fill-rule="evenodd" clip-rule="evenodd" d="M135 202H132V218H135V202ZM141 202H147V218H141V202ZM159 202H153V218H159V202ZM165 202H171V218H165V202ZM177 202H183V218H177V202Z" fill="#288202"/>
<path fill-rule="evenodd" clip-rule="evenodd" d="M132 201.937V218H98V201L100.853 119.214C115.699 124.142 124.304 139.859 120.203 155.165L118.215 162.586C118.174 162.737 118.133 162.887 118.09 163.037C117.087 166.562 117.547 170.429 119.212 173.695C119.651 174.555 120.046 175.448 120.394 176.372C121.388 179.008 121.926 181.704 122.047 184.374C122.227 188.31 123.969 192.164 126.809 194.895C128.884 196.89 130.652 199.254 132 201.937Z" fill="#288202"/>
<path fill-rule="evenodd" clip-rule="evenodd" d="M99.2229 110.687C83.9286 104.654 66.6396 112.162 60.6069 127.456L49.9233 154.541C47.2837 161.233 47.2364 168.307 49.2992 174.652C45.2898 181.258 44.2475 189.574 47.1834 197.365C49.4655 203.422 53.7623 208.13 59.0249 211.015C58.0813 215.655 58.3908 220.608 60.1834 225.365C63.0317 232.925 69.0184 238.383 76.1043 240.819C74.3346 246.249 74.3308 252.296 76.5013 258.056C81.5731 271.517 96.5966 278.317 110.057 273.245L117.027 270.619C130.487 265.547 137.288 250.524 132.216 237.064C129.368 229.504 123.381 224.046 116.295 221.61C118.065 216.18 118.069 210.133 115.898 204.372C113.616 198.316 109.319 193.608 104.057 190.723C104.794 187.098 104.766 183.281 103.864 179.516C104.399 178.514 104.882 177.47 105.309 176.388L115.992 149.303C122.025 134.008 114.517 116.719 99.2229 110.687Z" fill="#389810"/>
<path d="M314.813 123.249L303.23 126.817C303.013 126.884 302.815 126.983 302.633 127.118C301.152 128.211 293.853 133.582 287.411 138C288.274 135 289.3 128.2 286.5 125C283.875 122 281.529 122 279.764 122C278 122 279.5 126.5 280.5 128C281.27 129.155 278.937 133.673 278.386 138.576C278.065 141.432 277.765 144.385 276.417 146.923C274.305 150.903 274.49 155.711 276.904 159.516L277.283 160.114C280.31 164.887 286.088 167.141 291.548 165.678L291.691 165.726C296.691 167.418 302.21 165.679 305.338 161.428C305.62 161.044 306.039 160.782 306.508 160.698L311.135 159.862C311.506 159.795 311.888 159.834 312.238 159.975L318.615 162.544C319.31 162.824 320.103 162.692 320.669 162.203L321.57 161.425C322.552 160.578 322.48 159.034 321.423 158.282L313.988 152.993C313.609 152.723 313.147 152.594 312.682 152.628L309.533 152.86C308.915 152.906 308.782 152.009 309.387 151.874L314.078 150.824C314.331 150.767 314.593 150.76 314.849 150.804L325.037 152.531C326.292 152.744 327.424 151.745 327.37 150.473L327.34 149.78C327.303 148.919 326.719 148.18 325.892 147.943L313.721 144.461C313.419 144.375 313.102 144.361 312.794 144.42L306.571 145.614C306.026 145.719 305.741 144.99 306.213 144.698L313.363 140.272C313.57 140.144 313.798 140.055 314.037 140.009L324.517 137.988C325.917 137.718 326.593 136.112 325.808 134.922L325.489 134.439C325.091 133.836 324.398 133.494 323.677 133.546L312.017 134.385C311.768 134.403 311.524 134.467 311.299 134.575L301.746 139.129C301.244 139.369 300.785 138.731 301.172 138.33L307.102 132.197C307.268 132.025 307.464 131.885 307.679 131.782L316.836 127.416C318.175 126.777 318.377 124.954 317.21 124.037L316.637 123.587C316.121 123.183 315.44 123.056 314.813 123.249Z" fill="#7B371F"/>
<defs>
<clipPath id="clip0">
<rect width="250" height="272" fill="white" transform="translate(0 218)"/>
</clipPath>
</defs>
</svg>
